<svg width="14" height="14" viewBox="0 0 14 14" fill="none" xmlns="http://www.w3.org/2000/svg">
<path d="M2.30411 3.20878H9.18161C9.21131 3.20541 9.24133 3.21125 9.2676 3.2255C9.29387 3.23975 9.31513 3.26173 9.32849 3.28847C9.34186 3.3152 9.34669 3.34539 9.34233 3.37496C9.33797 3.40453 9.32463 3.43204 9.30411 3.45378L1.72078 11.0371C1.56622 11.203 1.48208 11.4224 1.48608 11.6491C1.49008 11.8757 1.58191 12.092 1.74222 12.2523C1.90254 12.4127 2.11882 12.5045 2.3455 12.5085C2.57219 12.5125 2.79158 12.4283 2.95745 12.2738L10.5408 4.69045C10.5622 4.67025 10.5891 4.65673 10.6181 4.65155C10.6471 4.64637 10.677 4.64975 10.7041 4.66128C10.7302 4.67267 10.7524 4.69144 10.7679 4.71528C10.7835 4.73912 10.7917 4.76699 10.7916 4.79545V11.6671C10.7916 11.8992 10.8838 12.1217 11.0479 12.2858C11.212 12.4499 11.4345 12.5421 11.6666 12.5421C11.8987 12.5421 12.1212 12.4499 12.2853 12.2858C12.4494 12.1217 12.5416 11.8992 12.5416 11.6671V2.91711C12.5424 2.7229 12.5043 2.53049 12.4295 2.35126C12.3547 2.17204 12.2447 2.00963 12.106 1.87367C11.9673 1.7377 11.8027 1.63093 11.6221 1.55967C11.4414 1.4884 11.2483 1.4541 11.0541 1.45878H2.30411C2.07205 1.45878 1.84949 1.55097 1.68539 1.71506C1.5213 1.87916 1.42911 2.10172 1.42911 2.33378C1.42911 2.56585 1.5213 2.7884 1.68539 2.9525C1.84949 3.11659 2.07205 3.20878 2.30411 3.20878Z" fill="#F58ED3"/>
</svg>
