<svg width="18" height="18" viewBox="0 0 18 18" fill="none" xmlns="http://www.w3.org/2000/svg">
<g clip-path="url(#clip0_107375_4045)">
<path d="M17.2632 7.89546C17.3609 7.89546 17.4547 7.85661 17.5238 7.78746C17.5929 7.71838 17.6318 7.62463 17.6318 7.52691C17.6318 5.57208 16.8552 3.69733 15.473 2.31506C14.0906 0.932796 12.2159 0.15625 10.2611 0.15625C10.1633 0.15625 10.0696 0.195077 10.0005 0.264191C9.93135 0.333303 9.89258 0.427041 9.89258 0.524782V7.15837C9.89258 7.35385 9.9702 7.54131 10.1084 7.67953C10.2467 7.81776 10.4342 7.89546 10.6296 7.89546H17.2632Z" fill="#380527"/>
<path d="M17.6315 8.99877H10.6294C10.5215 8.98774 10.4128 9.01099 10.3189 9.06522C10.2249 9.11944 10.1505 9.20194 10.1061 9.30094C10.0682 9.40324 10.0627 9.51469 10.0904 9.62022C10.1181 9.72574 10.1776 9.82017 10.2609 9.89059L15.2139 14.8363C15.2474 14.871 15.2874 14.8986 15.3317 14.9177C15.3761 14.9367 15.4237 14.9466 15.4719 14.9469C15.5203 14.9475 15.5681 14.9379 15.6126 14.9189C15.657 14.8998 15.697 14.8717 15.7299 14.8363C16.452 14.1208 17.0247 13.2687 17.4144 12.3298C17.8041 11.391 18.0033 10.3839 18 9.36732C18 9.26952 17.9613 9.17584 17.8921 9.10669C17.823 9.03754 17.7293 8.99877 17.6315 8.99877Z" fill="#380527"/>
<path d="M8.1159 17.8432C9.12187 17.8413 10.1175 17.6396 11.0449 17.2499C11.9723 16.8602 12.8131 16.2903 13.5186 15.573C13.5532 15.5388 13.5805 15.498 13.5993 15.4531C13.618 15.4083 13.6276 15.36 13.6276 15.3114C13.6276 15.2628 13.618 15.2146 13.5993 15.1697C13.5805 15.1248 13.5532 15.084 13.5186 15.0498L8.57287 10.0967C8.48715 9.99393 8.43337 9.86846 8.41815 9.73548V2.72603C8.41815 2.62829 8.3793 2.53455 8.31015 2.46543C8.24107 2.39632 8.14732 2.35749 8.0496 2.35749C7.0048 2.31659 5.96253 2.48763 4.98559 2.86029C4.00867 3.23295 3.11728 3.79953 2.36517 4.52588C1.61305 5.25224 1.01576 6.12333 0.609296 7.08669C0.202827 8.05008 -0.00440994 9.08576 7.11477e-05 10.1313C0.00455224 11.1769 0.220659 12.2108 0.63537 13.1706C1.05008 14.1304 1.65481 14.9964 2.41312 15.7163C3.17144 16.4361 4.06765 16.995 5.04774 17.3593C6.02782 17.7236 7.07152 17.8857 8.1159 17.8359V17.8432Z" fill="#380527"/>
</g>
<defs>
<clipPath id="clip0_107375_4045">
<rect width="18" height="18" fill="white"/>
</clipPath>
</defs>
</svg>
