<svg width="80" height="74" viewBox="0 0 80 74" fill="none" xmlns="http://www.w3.org/2000/svg">
<path d="M74.3639 43.0637L65.6972 21.4304C65.6196 21.2161 65.4942 21.0223 65.3305 20.8637L60.5972 16.1304L55.7305 3.13041C55.6367 2.90671 55.501 2.70304 55.3305 2.53041C53.6051 1.07559 51.4208 0.277657 49.1639 0.277657C46.9069 0.277657 44.7227 1.07559 42.9972 2.53041C42.8402 2.68167 42.7151 2.86282 42.6292 3.06319C42.5434 3.26356 42.4985 3.47909 42.4972 3.69708V20.3304H39.1639H37.4972V3.66374C37.4959 3.44575 37.451 3.23022 37.3652 3.02985C37.2793 2.82949 37.1542 2.64833 36.9972 2.49708C35.2717 1.04226 33.0875 0.244324 30.8305 0.244324C28.5736 0.244324 26.3893 1.04226 24.6639 2.49708C24.4935 2.66971 24.3577 2.87338 24.2639 3.09708L19.3972 16.1304L14.6639 20.8637C14.5002 21.0223 14.3748 21.2161 14.2972 21.4304L5.63054 43.0637C3.63716 45.2657 2.20972 47.9198 1.47148 50.7968C0.733237 53.6738 0.706378 56.6873 1.39322 59.577C2.08007 62.4667 3.45998 65.1458 5.41379 67.383C7.3676 69.6201 9.83659 71.3481 12.6076 72.4176C15.3785 73.4872 18.3682 73.8662 21.3184 73.5219C24.2686 73.1776 27.0907 72.1204 29.5409 70.4415C31.9911 68.7627 33.9959 66.5126 35.3821 63.8857C36.7683 61.2588 37.4942 58.334 37.4972 55.3637V36.9971C38.0522 36.9609 38.6089 36.9609 39.1639 36.9971C40.2838 36.9864 41.4016 37.0982 42.4972 37.3304V55.5304C42.4862 58.5133 43.2032 61.4538 44.586 64.0969C45.9688 66.7399 47.9757 69.0056 50.4324 70.6974C52.8891 72.3892 55.7216 73.456 58.684 73.8052C61.6464 74.1544 64.6493 73.7756 67.4321 72.7015C70.2149 71.6273 72.6936 69.8904 74.6531 67.6414C76.6126 65.3924 77.9938 62.6992 78.6767 59.7956C79.3597 56.8919 79.3238 53.8654 78.5723 50.9787C77.8207 48.0921 76.3761 45.4324 74.3639 43.2304V43.0637ZM30.8305 55.3637C30.824 57.6698 30.1341 59.9221 28.8482 61.8363C27.5622 63.7505 25.7378 65.2406 23.6055 66.1185C21.4731 66.9965 19.1284 67.2227 16.8675 66.7688C14.6065 66.3149 12.5309 65.2011 10.9026 63.5682C9.2743 61.9353 8.16647 59.8564 7.719 57.5942C7.27153 55.332 7.50451 52.988 8.3885 50.8581C9.2725 48.7282 10.7679 46.9081 12.6857 45.6276C14.6035 44.3472 16.8578 43.6637 19.1639 43.6637C20.6988 43.6637 22.2186 43.9666 23.6362 44.555C25.0539 45.1434 26.3415 46.0057 27.4253 47.0926C28.509 48.1795 29.3677 49.4695 29.9521 50.8889C30.5364 52.3082 30.8349 53.8288 30.8305 55.3637ZM60.8305 67.0304C58.5231 67.0304 56.2675 66.3462 54.3489 65.0642C52.4303 63.7823 50.935 61.9602 50.0519 59.8284C49.1689 57.6966 48.9379 55.3508 49.388 53.0877C49.8382 50.8246 50.9493 48.7458 52.581 47.1142C54.2126 45.4825 56.2914 44.3714 58.5545 43.9212C60.8176 43.4711 63.1634 43.7021 65.2952 44.5851C67.427 45.4682 69.2491 46.9635 70.531 48.8821C71.813 50.8007 72.4972 53.0563 72.4972 55.3637C72.4884 58.4522 71.2553 61.4111 69.0683 63.5918C66.8814 65.7725 63.919 66.9971 60.8305 66.9971V67.0304Z" fill="#F58ED3"/>
</svg>
