<svg width="14" height="14" viewBox="0 0 14 14" fill="none" xmlns="http://www.w3.org/2000/svg">
<g clip-path="url(#clip0_107923_957)">
<path d="M2.05025 2.05058C1.88616 2.21467 1.79397 2.43723 1.79397 2.6693C1.79397 2.90136 1.88616 3.12392 2.05025 3.28801L5.65944 6.8972C5.68679 6.92455 5.70216 6.96165 5.70216 7.00032C5.70216 7.039 5.68679 7.0761 5.65944 7.10344L2.05025 10.7126C1.88616 10.8767 1.79397 11.0993 1.79397 11.3314C1.79397 11.5634 1.88616 11.786 2.05025 11.9501C2.21435 12.1142 2.43691 12.2064 2.66897 12.2064C2.90104 12.2064 3.12359 12.1142 3.28769 11.9501L6.89688 8.34088C6.92423 8.31353 6.96132 8.29817 7 8.29817C7.03868 8.29817 7.07577 8.31353 7.10312 8.34088L10.7123 11.9501C10.8764 12.1142 11.099 12.2064 11.331 12.2064C11.5631 12.2064 11.7857 12.1142 11.9497 11.9501C12.1138 11.786 12.206 11.5634 12.206 11.3314C12.206 11.0993 12.1138 10.8767 11.9497 10.7126L8.34056 7.10344C8.31321 7.0761 8.29784 7.039 8.29784 7.00032C8.29784 6.96165 8.31321 6.92455 8.34056 6.8972L11.9497 3.28801C12.1138 3.12392 12.206 2.90136 12.206 2.6693C12.206 2.43723 12.1138 2.21467 11.9497 2.05058C11.7857 1.88648 11.5631 1.7943 11.331 1.7943C11.099 1.7943 10.8764 1.88648 10.7123 2.05058L7.10312 5.65977C7.07577 5.68712 7.03868 5.70248 7 5.70248C6.96132 5.70248 6.92423 5.68712 6.89688 5.65977L3.28769 2.05058C3.1236 1.88648 2.90104 1.7943 2.66897 1.7943C2.43691 1.7943 2.21435 1.88648 2.05025 2.05058Z" fill="#F58ED3"/>
</g>
<defs>
<clipPath id="clip0_107923_957">
<rect width="14" height="14" fill="white"/>
</clipPath>
</defs>
</svg>
