<svg width="14" height="14" viewBox="0 0 14 14" fill="none" xmlns="http://www.w3.org/2000/svg">
<g clip-path="url(#clip0_107871_663)">
<path d="M14 6.5625C14 9.7043 10.8664 12.25 7.00002 12.25C5.98556 12.25 5.02306 12.075 4.15353 11.7605C3.82814 11.9984 3.29767 12.3238 2.66877 12.5973C2.01252 12.8816 1.22228 13.125 0.437517 13.125C0.259783 13.125 0.101189 13.0184 0.0328299 12.8543C-0.0355294 12.6902 0.00275179 12.5043 0.125799 12.3785L0.134002 12.3703C0.142205 12.3621 0.153142 12.3512 0.169549 12.332C0.199627 12.2992 0.246111 12.2473 0.303533 12.1762C0.415642 12.0395 0.566033 11.8371 0.719158 11.5855C0.992596 11.1316 1.25236 10.5355 1.30431 9.86562C0.484002 8.93594 1.74246e-05 7.7957 1.74246e-05 6.5625C1.74246e-05 3.4207 3.13361 0.875 7.00002 0.875C10.8664 0.875 14 3.4207 14 6.5625Z" fill="#380527"/>
</g>
<defs>
<clipPath id="clip0_107871_663">
<rect width="14" height="14" fill="white"/>
</clipPath>
</defs>
</svg>
