<svg width="14" height="14" viewBox="0 0 14 14" fill="none" xmlns="http://www.w3.org/2000/svg">
<g clip-path="url(#clip0_107871_1914)">
<path d="M6.21833 11.7074C6.12449 11.6882 6.0278 11.6877 5.93377 11.7059C5.83975 11.7242 5.75023 11.7607 5.67033 11.8135C5.50897 11.9202 5.3966 12.0866 5.35792 12.2761C5.31924 12.4656 5.35743 12.6627 5.4641 12.8241C5.57076 12.9855 5.73715 13.0978 5.92667 13.1365C6.34885 13.2243 6.7788 13.2692 7.21 13.2707C8.55336 13.2629 9.8587 12.8239 10.9338 12.0183C12.0088 11.2128 12.7968 10.0833 13.1816 8.79623C13.5664 7.50914 13.5277 6.1325 13.0712 4.86907C12.6147 3.60563 11.7646 2.52218 10.646 1.7783C9.52733 1.03442 8.1994 0.66943 6.85772 0.737087C5.51605 0.804744 4.23157 1.30147 3.19346 2.15411C2.15535 3.00675 1.41849 4.17023 1.09142 5.47318C0.76434 6.77613 0.864333 8.14968 1.37667 9.39152C1.38876 9.42145 1.39014 9.45464 1.38057 9.48546C1.371 9.51629 1.35108 9.54287 1.32417 9.56069L0.740834 9.98652C0.651388 10.0521 0.582481 10.1418 0.542188 10.2451C0.501895 10.3484 0.491886 10.4611 0.513335 10.5699C0.536795 10.6801 0.591703 10.7812 0.671417 10.8609C0.751132 10.9407 0.852236 10.9956 0.962501 11.019L3.29583 11.5149H3.41833C3.53011 11.5146 3.63944 11.4822 3.73333 11.4215C3.85431 11.3419 3.94318 11.2221 3.98417 11.0832L4.5325 8.51652C4.55376 8.40243 4.54051 8.28459 4.49443 8.17807C4.44836 8.07155 4.37155 7.98119 4.27385 7.91856C4.17614 7.85593 4.06197 7.82386 3.94594 7.82647C3.82991 7.82907 3.7173 7.86623 3.6225 7.93319L2.82333 8.51652C2.80349 8.52675 2.78149 8.53209 2.75917 8.53209C2.73684 8.53209 2.71484 8.52675 2.695 8.51652C2.67245 8.51088 2.65185 8.49921 2.63542 8.48278C2.61898 8.46634 2.60731 8.44574 2.60167 8.42319C2.2887 7.41341 2.31651 6.32873 2.68082 5.33631C3.04513 4.3439 3.72572 3.49884 4.61768 2.93139C5.50964 2.36393 6.56348 2.10557 7.61676 2.19613C8.67004 2.28669 9.66431 2.72114 10.4463 3.43252C11.2283 4.1439 11.7547 5.09272 11.9443 6.13275C12.1338 7.17279 11.9761 8.2463 11.4953 9.18784C11.0146 10.1294 10.2376 10.8867 9.28396 11.343C8.33036 11.7994 7.25315 11.9295 6.21833 11.7132V11.7074Z" fill="#380527"/>
</g>
<defs>
<clipPath id="clip0_107871_1914">
<rect width="14" height="14" fill="white"/>
</clipPath>
</defs>
</svg>
