<svg width="14" height="14" viewBox="0 0 14 14" fill="none" xmlns="http://www.w3.org/2000/svg">
<g clip-path="url(#clip0_107871_659)">
<path d="M2.99861 -0.000345601C1.34199 -0.000397549 0.000140871 1.34024 7.83594e-05 2.99686C-1.2708e-05 5.41023 -1.50962e-05 8.62489 2.40698e-05 11.002C5.13669e-05 12.6587 1.34133 13.9999 2.99808 13.9999C5.37458 13.9998 8.58826 13.9998 11.0014 13.9998C12.6586 13.9998 14.0001 12.6569 14.0001 10.9997C14 8.63199 14.0001 5.39066 14.0001 2.99773C14.0002 1.3404 12.6572 -0.000248949 10.9999 -0.000220622C8.57001 -0.000179092 5.36787 -0.000271305 2.99861 -0.000345601ZM10.9729 4.57328L6.88953 10.1149C6.84303 10.1783 6.78421 10.2316 6.71659 10.2717C6.64898 10.3118 6.57397 10.3377 6.49606 10.3481C6.41815 10.3584 6.33895 10.3529 6.26322 10.3319C6.18749 10.3109 6.11679 10.2748 6.05536 10.2258L3.13869 7.89245C3.06415 7.85115 2.99957 7.79403 2.94947 7.7251C2.89938 7.65616 2.865 7.57709 2.84875 7.49344C2.8325 7.40979 2.83477 7.3236 2.8554 7.24092C2.87604 7.15825 2.91454 7.0811 2.96819 7.0149C3.02184 6.9487 3.08935 6.89505 3.16596 6.85774C3.24256 6.82043 3.32642 6.80036 3.41162 6.79893C3.49682 6.79751 3.5813 6.81476 3.65911 6.84949C3.73693 6.88422 3.80619 6.93558 3.86202 6.99995L6.30619 8.95411L10.0279 3.90244C10.0731 3.84039 10.13 3.78785 10.1955 3.74782C10.261 3.70779 10.3338 3.68106 10.4096 3.66914C10.4854 3.65722 10.5629 3.66036 10.6375 3.67837C10.7121 3.69638 10.7825 3.72891 10.8445 3.77411C10.9066 3.81931 10.9591 3.87628 10.9991 3.94178C11.0392 4.00729 11.0659 4.08003 11.0778 4.15587C11.0897 4.2317 11.0866 4.30914 11.0686 4.38376C11.0506 4.45838 11.0181 4.52873 10.9729 4.59078V4.57328Z" fill="#380527"/>
</g>
<defs>
<clipPath id="clip0_107871_659">
<rect width="14" height="14" fill="white"/>
</clipPath>
</defs>
</svg>
