<svg width="14" height="14" viewBox="0 0 14 14" fill="none" xmlns="http://www.w3.org/2000/svg">
<g clip-path="url(#clip0_107858_690)">
<path d="M11.7659 2.47951C11.7046 2.42446 11.6324 2.38301 11.554 2.35787C11.4756 2.33273 11.3927 2.32449 11.3109 2.33368L3.76254 3.20868C3.60783 3.20868 3.45946 3.14722 3.35006 3.03782C3.24066 2.92842 3.17921 2.78005 3.17921 2.62534C3.17921 2.44451 3.17921 2.17034 3.87337 2.04201C4.87087 1.84368 10.2259 1.16701 10.2784 1.16701C10.4331 1.14844 10.5741 1.06918 10.6703 0.946657C10.7666 0.824133 10.8103 0.668385 10.7917 0.513675C10.7731 0.358966 10.6939 0.217968 10.5714 0.121699C10.4488 0.0254302 10.2931 -0.0182232 10.1384 0.000341929C9.9167 0.0353419 4.66671 0.688675 3.68087 0.887009C2.25171 1.16701 2.04171 2.09451 2.04171 2.62534V11.667C2.03284 11.9758 2.08714 12.2832 2.20126 12.5703C2.31538 12.8574 2.48693 13.1182 2.7054 13.3367C2.92386 13.5551 3.18463 13.7267 3.47173 13.8408C3.75883 13.9549 4.06621 14.0092 4.37504 14.0003C4.43337 14.0003 11.445 13.1195 11.445 13.1195C11.5873 13.1023 11.7183 13.0333 11.813 12.9258C11.9076 12.8182 11.9594 12.6795 11.9584 12.5362V2.91701C11.959 2.83463 11.9422 2.75305 11.909 2.67764C11.8758 2.60223 11.827 2.5347 11.7659 2.47951Z" fill="#380527"/>
</g>
<defs>
<clipPath id="clip0_107858_690">
<rect width="14" height="14" fill="white"/>
</clipPath>
</defs>
</svg>
