<svg width="14" height="14" viewBox="0 0 14 14" fill="none" xmlns="http://www.w3.org/2000/svg">
<g clip-path="url(#clip0_107858_1349)">
<path d="M13.8657 11.9992L8.03237 0.915915C7.93349 0.72766 7.78505 0.57001 7.60307 0.460003C7.42109 0.349995 7.21251 0.291814 6.99987 0.291748C6.78723 0.291814 6.57865 0.349995 6.39668 0.460003C6.2147 0.57001 6.06625 0.72766 5.96737 0.915915L0.134039 11.9992C0.0369109 12.1797 -0.0109904 12.3825 -0.00484634 12.5873C0.00129776 12.7921 0.0612706 12.9916 0.169039 13.1659C0.275342 13.3338 0.422767 13.4718 0.597337 13.5667C0.771906 13.6616 0.967832 13.7104 1.16654 13.7084H12.8332C13.034 13.7084 13.2314 13.6565 13.4063 13.5578C13.5812 13.4591 13.7276 13.3169 13.8314 13.145C13.9353 12.9731 13.993 12.7773 13.999 12.5766C14.005 12.3759 13.9591 12.177 13.8657 11.9992ZM6.41654 4.95841C6.41654 4.8037 6.478 4.65533 6.58739 4.54594C6.69679 4.43654 6.84516 4.37508 6.99987 4.37508C7.15458 4.37508 7.30296 4.43654 7.41235 4.54594C7.52175 4.65533 7.58321 4.8037 7.58321 4.95841V8.45841C7.58321 8.61312 7.52175 8.7615 7.41235 8.87089C7.30296 8.98029 7.15458 9.04175 6.99987 9.04175C6.84516 9.04175 6.69679 8.98029 6.58739 8.87089C6.478 8.7615 6.41654 8.61312 6.41654 8.45841V4.95841ZM7.02904 11.6667C6.79928 11.6654 6.57889 11.5755 6.41373 11.4158C6.24858 11.2561 6.15138 11.0388 6.14237 10.8092C6.13847 10.6939 6.15773 10.579 6.199 10.4713C6.24027 10.3635 6.30272 10.2651 6.38266 10.1819C6.4626 10.0987 6.5584 10.0324 6.66442 9.98684C6.77043 9.9413 6.88449 9.91746 6.99987 9.91675C7.22963 9.91807 7.45002 10.008 7.61518 10.1677C7.78033 10.3274 7.87753 10.5447 7.88654 10.7742C7.89044 10.8896 7.87118 11.0045 7.82991 11.1122C7.78864 11.22 7.72619 11.3184 7.64625 11.4016C7.56631 11.4848 7.47051 11.5511 7.3645 11.5967C7.25848 11.6422 7.14442 11.666 7.02904 11.6667Z" fill="#F26969"/>
</g>
<defs>
<clipPath id="clip0_107858_1349">
<rect width="14" height="14" fill="white"/>
</clipPath>
</defs>
</svg>
