<svg width="18" height="18" viewBox="0 0 18 18" fill="none" xmlns="http://www.w3.org/2000/svg">
<g clip-path="url(#clip0_107375_4031)">
<path d="M17.7522 8.15116L10.0347 1.22116C9.74931 0.968105 9.38111 0.828369 8.99969 0.828369C8.61827 0.828369 8.25007 0.968105 7.96469 1.22116L0.247194 8.15116C0.173354 8.21735 0.113373 8.29752 0.0707213 8.38705C0.0280699 8.47657 0.00359481 8.57366 -0.00128761 8.6727C-0.00617002 8.77175 0.00863713 8.87078 0.0422771 8.96406C0.075917 9.05734 0.127722 9.14303 0.194694 9.21616C0.328151 9.36304 0.514384 9.45104 0.712598 9.46088C0.910811 9.47072 1.10484 9.4016 1.25219 9.26866L3.25469 7.49866L5.18219 16.4987C5.22412 16.6853 5.32745 16.8526 5.47566 16.9736C5.62387 17.0946 5.80839 17.1624 5.99969 17.1662H11.9997C12.191 17.1624 12.3755 17.0946 12.5237 16.9736C12.6719 16.8526 12.7753 16.6853 12.8172 16.4987L14.7597 7.49866L16.7472 9.28366C16.8945 9.4166 17.0886 9.48572 17.2868 9.47588C17.485 9.46604 17.6712 9.37804 17.8047 9.23116C17.874 9.15773 17.9278 9.07106 17.9627 8.97635C17.9977 8.88164 18.0133 8.78083 18.0084 8.67998C18.0034 8.57913 17.9782 8.48031 17.9342 8.38944C17.8902 8.29857 17.8283 8.21752 17.7522 8.15116ZM8.99969 11.1212C8.55468 11.1212 8.11967 10.9892 7.74966 10.742C7.37965 10.4947 7.09126 10.1433 6.92096 9.7322C6.75067 9.32106 6.70611 8.86866 6.79293 8.43221C6.87974 7.99575 7.09403 7.59484 7.4087 7.28017C7.72337 6.9655 8.12428 6.75121 8.56074 6.66439C8.9972 6.57758 9.4496 6.62213 9.86073 6.79243C10.2719 6.96273 10.6233 7.25112 10.8705 7.62113C11.1177 7.99114 11.2497 8.42615 11.2497 8.87116C11.2497 9.4679 11.0126 10.0402 10.5907 10.4621C10.1687 10.8841 9.59643 11.1212 8.99969 11.1212Z" fill="#380527"/>
</g>
<defs>
<clipPath id="clip0_107375_4031">
<rect width="18" height="18" fill="white"/>
</clipPath>
</defs>
</svg>
