<svg width="98" height="18" viewBox="0 0 98 18" fill="none" xmlns="http://www.w3.org/2000/svg">
<path d="M88.2584 17.9994C86.335 17.9994 84.6492 17.7467 83.2009 17.2414C81.7527 16.736 80.6251 15.9931 79.818 15.0126C79.0184 14.0245 78.6187 12.829 78.6187 11.4261C78.6187 10.0382 79.0033 8.83519 79.7727 7.81695C80.5421 6.7987 81.6584 6.01804 83.1217 5.47498C84.5851 4.92437 86.335 4.64906 88.3716 4.64906C90.3025 4.64906 91.9883 4.9206 93.429 5.46366C94.8773 6.00673 96.0012 6.81378 96.8007 7.88483C97.6002 8.94833 98 10.2419 98 11.7655V12.3651H84.8415V9.76293H91.1662L90.3289 10.3965V9.85344C90.3289 9.45368 90.2535 9.09918 90.1026 8.78994C89.9518 8.48069 89.7255 8.23933 89.4238 8.06585C89.1221 7.88483 88.76 7.79432 88.3376 7.79432C87.6361 7.79432 87.0968 8.01305 86.7197 8.45052C86.3425 8.88799 86.154 9.48385 86.154 10.2381V10.8717L86.1426 11.3016V12.1388C86.1426 12.6517 86.2181 13.1005 86.3689 13.4852C86.5198 13.8699 86.7574 14.1753 87.0817 14.4016C87.4136 14.6279 87.8398 14.741 88.3602 14.741C88.8958 14.741 89.3408 14.6053 89.6953 14.3337C90.0574 14.0622 90.2761 13.6851 90.3516 13.2023C90.3591 13.1948 90.3629 13.191 90.3629 13.191C90.3629 13.1835 90.3629 13.1759 90.3629 13.1684H97.9434C97.7624 14.2017 97.2344 15.0804 96.3594 15.8045C95.492 16.5286 94.3606 17.0755 92.9651 17.445C91.5773 17.8146 90.0084 17.9994 88.2584 17.9994Z" fill="#380527"/>
<path d="M69.6749 5.06865H77.0179V17.5818H69.6749V5.06865ZM73.3521 4.40114C72.6129 4.40114 71.9415 4.3144 71.3381 4.14092C70.7347 3.96744 70.2519 3.71476 69.8899 3.38289C69.5354 3.05102 69.3581 2.6588 69.3581 2.20625C69.3581 1.75369 69.5354 1.36148 69.8899 1.02961C70.2519 0.697734 70.7347 0.445057 71.3381 0.271578C71.9415 0.0905566 72.6129 4.57764e-05 73.3521 4.57764e-05C74.0837 4.57764e-05 74.7513 0.0905566 75.3547 0.271578C75.9581 0.445057 76.4371 0.697734 76.7916 1.02961C77.1536 1.36148 77.3347 1.75369 77.3347 2.20625C77.3347 2.6588 77.1536 3.05102 76.7916 3.38289C76.4371 3.71476 75.9581 3.96744 75.3547 4.14092C74.7513 4.3144 74.0837 4.40114 73.3521 4.40114Z" fill="#380527"/>
<path d="M54.7406 18C53.496 18 52.4136 17.7435 51.4934 17.2306C50.5732 16.7177 49.8604 15.9635 49.355 14.9678C48.8496 13.9647 48.5969 12.7503 48.5969 11.3248C48.5969 9.91432 48.8609 8.70751 49.3889 7.70434C49.9245 6.70118 50.6637 5.94315 51.6065 5.43026C52.5494 4.90982 53.6356 4.6496 54.865 4.6496C55.7853 4.6496 56.6452 4.79668 57.4447 5.09084C58.2518 5.37746 58.942 5.77722 59.5152 6.29011C60.096 6.80301 60.526 7.38755 60.805 8.04376L60.1828 8.36055V5.06821H67.537V17.5813H60.1828V14.1759L60.8956 14.5492C60.5712 15.2431 60.1111 15.8503 59.5152 16.3708C58.9193 16.8912 58.2103 17.2947 57.3881 17.5813C56.5735 17.8604 55.691 18 54.7406 18ZM58.3272 14.2551C58.727 14.2551 59.0815 14.1495 59.3908 13.9383C59.7 13.7271 59.9452 13.4141 60.1262 12.9992C60.3148 12.5844 60.4203 12.0828 60.443 11.4945V11.2795C60.443 10.6459 60.3525 10.1104 60.1714 9.67295C59.9904 9.22794 59.7415 8.8923 59.4247 8.66602C59.1079 8.4322 58.7421 8.31529 58.3272 8.31529C57.9124 8.31529 57.5465 8.42843 57.2297 8.65471C56.9205 8.88098 56.6791 9.21663 56.5056 9.66164C56.3321 10.1067 56.2454 10.6459 56.2454 11.2795C56.2454 11.9056 56.3321 12.4448 56.5056 12.8974C56.6791 13.3424 56.9205 13.6818 57.2297 13.9157C57.5465 14.1419 57.9124 14.2551 58.3272 14.2551ZM60.1828 1.35727H67.537V5.93938H60.1828V1.35727Z" fill="#380527"/>
<path d="M31.5887 5.0631H38.6941V10.143L38.2641 9.03427C38.4753 8.16687 38.8298 7.40507 39.3277 6.74887C39.833 6.08512 40.4478 5.57223 41.1719 5.21018C41.896 4.8406 42.6956 4.6558 43.5705 4.6558C44.3852 4.6558 45.0829 4.82174 45.6637 5.15361C46.252 5.48549 46.7008 5.99461 47.0101 6.68098C47.3269 7.36736 47.4853 8.22721 47.4853 9.26054V12.8244H41.0135V10.9576C41.0135 10.5579 40.9268 10.2637 40.7533 10.0751C40.5873 9.87903 40.346 9.78098 40.0292 9.78098C39.7048 9.78098 39.4408 9.89412 39.2372 10.1204C39.0335 10.3467 38.9317 10.6823 38.9317 11.1273V17.5762H31.5887V5.0631Z" fill="#380527"/>
<path d="M22.0836 5.06865H29.4266V17.5818H22.0836V5.06865ZM25.7608 4.40114C25.0216 4.40114 24.3503 4.3144 23.7468 4.14092C23.1434 3.96744 22.6607 3.71476 22.2986 3.38289C21.9441 3.05102 21.7668 2.6588 21.7668 2.20625C21.7668 1.75369 21.9441 1.36148 22.2986 1.02961C22.6607 0.697734 23.1434 0.445057 23.7468 0.271578C24.3503 0.0905566 25.0216 4.57764e-05 25.7608 4.57764e-05C26.4924 4.57764e-05 27.16 0.0905566 27.7634 0.271578C28.3668 0.445057 28.8458 0.697734 29.2003 1.02961C29.5624 1.36148 29.7434 1.75369 29.7434 2.20625C29.7434 2.6588 29.5624 3.05102 29.2003 3.38289C28.8458 3.71476 28.3668 3.96744 27.7634 4.14092C27.16 4.3144 26.4924 4.40114 25.7608 4.40114Z" fill="#380527"/>
<path d="M0 1.35727H12.1063C13.8034 1.35727 15.2215 1.49303 16.3604 1.76456C17.4994 2.0361 18.3593 2.46225 18.9401 3.04303C19.5209 3.61627 19.8113 4.35544 19.8113 5.26055C19.8113 6.11286 19.5624 6.83318 19.0646 7.4215C18.5667 8.00228 17.9143 8.44352 17.1072 8.74522C16.3076 9.03938 15.4327 9.19777 14.4823 9.2204L14.7199 8.83573C15.8588 8.88099 16.862 9.06955 17.7295 9.40142C18.5969 9.7333 19.2757 10.2047 19.766 10.8157C20.2639 11.4266 20.5128 12.1545 20.5128 12.9992C20.5128 14.1457 20.1696 15.0546 19.4832 15.7259C18.8043 16.3896 17.7974 16.8648 16.4623 17.1514C15.1272 17.438 13.415 17.5813 11.3256 17.5813H0V1.35727ZM10.1376 14.0854C10.8542 14.0854 11.4048 13.9571 11.7895 13.7007C12.1817 13.4442 12.3778 13.0369 12.3778 12.4788C12.3778 11.9584 12.1855 11.5775 11.8008 11.3361C11.4236 11.0947 10.8843 10.9741 10.1828 10.9741H7.7729V14.0854H10.1376ZM10.0697 7.53464C10.6731 7.53464 11.1446 7.4215 11.484 7.19522C11.8234 6.9614 11.9931 6.60313 11.9931 6.1204C11.9931 5.66031 11.8234 5.32843 11.484 5.12478C11.1521 4.91359 10.6958 4.80799 10.115 4.80799H7.7729V7.53464H10.0697Z" fill="#380527"/>
</svg>
